<svg width="200" height="200" xmlns="http://www.w3.org/2000/svg">
  <defs>
    <linearGradient id="incomeGrad" x1="0%" y1="0%" x2="100%" y2="100%">
      <stop offset="0%" style="stop-color:#28a745;stop-opacity:1" />
      <stop offset="100%" style="stop-color:#20c997;stop-opacity:1" />
    </linearGradient>
  </defs>
  <rect width="200" height="200" rx="20" fill="url(#incomeGrad)"/>
  
  <!-- Happy character with money -->
  <!-- Head -->
  <circle cx="100" cy="70" r="25" fill="#fdbcb4" stroke="#333" stroke-width="2"/>
  
  <!-- Dollar sign eyes (excited) -->
  <circle cx="92" cy="65" r="5" fill="white"/>
  <circle cx="108" cy="65" r="5" fill="white"/>
  <text x="92" y="69" text-anchor="middle" font-family="Arial" font-size="8" fill="#28a745" font-weight="bold">$</text>
  <text x="108" y="69" text-anchor="middle" font-family="Arial" font-size="8" fill="#28a745" font-weight="bold">$</text>
  
  <!-- Big happy smile -->
  <path d="M85 75 Q100 90 115 75" stroke="black" stroke-width="3" fill="none"/>
  
  <!-- Happy hair -->
  <path d="M80 50 Q85 40 90 47 Q95 35 100 42 Q105 35 110 42 Q115 40 120 50" 
        fill="#8B4513" stroke="#333" stroke-width="1"/>
  
  <!-- Body -->
  <ellipse cx="100" cy="120" rx="22" ry="28" fill="#FFD700" stroke="#333" stroke-width="2"/>
  
  <!-- Arms up in celebration -->
  <ellipse cx="70" cy="100" rx="8" ry="18" fill="#fdbcb4" stroke="#333" stroke-width="2" transform="rotate(-45 70 100)"/>
  <ellipse cx="130" cy="100" rx="8" ry="18" fill="#fdbcb4" stroke="#333" stroke-width="2" transform="rotate(45 130 100)"/>
  
  <!-- Hands with money -->
  <circle cx="60" cy="85" r="6" fill="#fdbcb4" stroke="#333" stroke-width="2"/>
  <circle cx="140" cy="85" r="6" fill="#fdbcb4" stroke="#333" stroke-width="2"/>
  
  <!-- Money bills in hands -->
  <rect x="52" y="80" width="8" height="5" rx="1" fill="#90EE90" stroke="#333" stroke-width="1"/>
  <rect x="136" y="80" width="8" height="5" rx="1" fill="#90EE90" stroke="#333" stroke-width="1"/>
  
  <!-- Legs -->
  <ellipse cx="88" cy="155" rx="8" ry="20" fill="#FFD700" stroke="#333" stroke-width="2"/>
  <ellipse cx="112" cy="155" rx="8" ry="20" fill="#FFD700" stroke="#333" stroke-width="2"/>
  
  <!-- Shoes -->
  <ellipse cx="88" cy="175" rx="8" ry="4" fill="black"/>
  <ellipse cx="112" cy="175" rx="8" ry="4" fill="black"/>
  
  <!-- Money falling from sky -->
  <rect x="45" y="30" width="6" height="4" rx="1" fill="#90EE90" stroke="#333" stroke-width="0.5"/>
  <rect x="65" y="25" width="6" height="4" rx="1" fill="#90EE90" stroke="#333" stroke-width="0.5"/>
  <rect x="130" y="35" width="6" height="4" rx="1" fill="#90EE90" stroke="#333" stroke-width="0.5"/>
  <rect x="155" y="40" width="6" height="4" rx="1" fill="#90EE90" stroke="#333" stroke-width="0.5"/>
  <rect x="40" y="50" width="6" height="4" rx="1" fill="#90EE90" stroke="#333" stroke-width="0.5"/>
  <rect x="160" y="60" width="6" height="4" rx="1" fill="#90EE90" stroke="#333" stroke-width="0.5"/>
  
  <!-- Dollar signs -->
  <text x="75" y="45" font-family="Arial" font-size="12" fill="#FFD700" font-weight="bold">$</text>
  <text x="125" y="50" font-family="Arial" font-size="12" fill="#FFD700" font-weight="bold">$</text>
  <text x="50" y="70" font-family="Arial" font-size="12" fill="#FFD700" font-weight="bold">$</text>
  <text x="150" y="75" font-family="Arial" font-size="12" fill="#FFD700" font-weight="bold">$</text>
  
  <!-- Sparkle effects -->
  <text x="35" y="90" font-family="Arial" font-size="14" fill="#FFD700">✨</text>
  <text x="165" y="100" font-family="Arial" font-size="14" fill="#FFD700">✨</text>
  <text x="170" y="120" font-family="Arial" font-size="14" fill="#FFD700">💰</text>
  
  <text x="100" y="190" text-anchor="middle" font-family="Arial" font-size="14" fill="white" font-weight="bold">INCOME</text>
</svg>